<svg width="16" height="16" viewBox="0 0 16 16" fill="none" xmlns="http://www.w3.org/2000/svg">
<path d="M13.5 8C13.5 5.27888 11.079 3 8 3C4.92096 3 2.5 5.27888 2.5 8C2.5 9.18305 2.95176 10.2742 3.7168 11.1361L3.87435 11.3053L3.875 11.306C4.21203 11.6548 4.55691 12.2228 4.39062 12.8717C4.3353 13.0874 4.25736 13.2955 4.16276 13.4954C4.84864 13.4641 5.48206 13.2368 6.00911 12.8665L6.05599 12.8372C6.16887 12.7752 6.30207 12.7588 6.42773 12.793C6.92477 12.928 7.45271 13 8 13C11.079 13 13.5 10.7211 13.5 8ZM14.5 8C14.5 11.3535 11.5476 14 8 14C7.44462 14 6.90404 13.9357 6.38737 13.8138C5.69506 14.248 4.87655 14.4993 4 14.4993C3.7326 14.4997 3.46567 14.4769 3.20247 14.4297C3.02648 14.3981 2.88077 14.2744 2.82031 14.1061C2.75994 13.9379 2.79391 13.7503 2.90951 13.6139C3.15303 13.3267 3.32828 12.9878 3.42188 12.623C3.46079 12.4707 3.39441 12.2478 3.1556 12.0007V12C2.13087 10.9435 1.5 9.54281 1.5 8C1.5 4.64645 4.45237 2 8 2C11.5476 2 14.5 4.64645 14.5 8Z" fill="currentColor"/>
</svg>
