<svg width="24" height="24" viewBox="0 0 24 24" fill="none" xmlns="http://www.w3.org/2000/svg">
<path d="M9.75 15.75C9.75 15.3522 9.59185 14.9708 9.31055 14.6895C9.02924 14.4081 8.64782 14.25 8.25 14.25H6C5.60218 14.25 5.22076 14.4081 4.93945 14.6895C4.65815 14.9708 4.5 15.3522 4.5 15.75V18C4.5 18.3978 4.65815 18.7792 4.93945 19.0605C5.22076 19.3419 5.60218 19.5 6 19.5H8.25C8.64782 19.5 9.02924 19.3419 9.31055 19.0605C9.59185 18.7792 9.75 18.3978 9.75 18V15.75ZM19.5 15.75C19.5 15.3522 19.3419 14.9708 19.0605 14.6895C18.7792 14.4081 18.3978 14.25 18 14.25H15.75C15.3522 14.25 14.9708 14.4081 14.6895 14.6895C14.4081 14.9708 14.25 15.3522 14.25 15.75V18C14.25 18.3978 14.4081 18.7792 14.6895 19.0605C14.9708 19.3419 15.3522 19.5 15.75 19.5H18C18.3978 19.5 18.7792 19.3419 19.0605 19.0605C19.3419 18.7792 19.5 18.3978 19.5 18V15.75ZM9.75 6C9.75 5.60218 9.59185 5.22076 9.31055 4.93945C9.02924 4.65815 8.64782 4.5 8.25 4.5H6C5.60218 4.5 5.22076 4.65815 4.93945 4.93945C4.65815 5.22076 4.5 5.60218 4.5 6V8.25C4.5 8.64782 4.65815 9.02924 4.93945 9.31055C5.22076 9.59185 5.60218 9.75 6 9.75H8.25C8.64782 9.75 9.02924 9.59185 9.31055 9.31055C9.59185 9.02924 9.75 8.64782 9.75 8.25V6ZM19.5 6C19.5 5.60218 19.3419 5.22076 19.0605 4.93945C18.7792 4.65815 18.3978 4.5 18 4.5H15.75C15.3522 4.5 14.9708 4.65815 14.6895 4.93945C14.4081 5.22076 14.25 5.60218 14.25 6V8.25C14.25 8.64782 14.4081 9.02924 14.6895 9.31055C14.9708 9.59185 15.3522 9.75 15.75 9.75H18C18.3978 9.75 18.7792 9.59185 19.0605 9.31055C19.3419 9.02924 19.5 8.64782 19.5 8.25V6ZM11.25 18C11.25 18.7956 10.9337 19.5585 10.3711 20.1211C9.80848 20.6837 9.04565 21 8.25 21H6C5.20435 21 4.44152 20.6837 3.87891 20.1211C3.3163 19.5585 3 18.7956 3 18V15.75C3 14.9544 3.3163 14.1915 3.87891 13.6289C4.44152 13.0663 5.20435 12.75 6 12.75H8.25C9.04565 12.75 9.80848 13.0663 10.3711 13.6289C10.9337 14.1915 11.25 14.9544 11.25 15.75V18ZM21 18C21 18.7956 20.6837 19.5585 20.1211 20.1211C19.5585 20.6837 18.7956 21 18 21H15.75C14.9544 21 14.1915 20.6837 13.6289 20.1211C13.0663 19.5585 12.75 18.7956 12.75 18V15.75C12.75 14.9544 13.0663 14.1915 13.6289 13.6289C14.1915 13.0663 14.9544 12.75 15.75 12.75H18C18.7956 12.75 19.5585 13.0663 20.1211 13.6289C20.6837 14.1915 21 14.9544 21 15.75V18ZM11.25 8.25C11.25 9.04565 10.9337 9.80848 10.3711 10.3711C9.80848 10.9337 9.04565 11.25 8.25 11.25H6C5.20435 11.25 4.44152 10.9337 3.87891 10.3711C3.3163 9.80848 3 9.04565 3 8.25V6C3 5.20435 3.3163 4.44152 3.87891 3.87891C4.44152 3.3163 5.20435 3 6 3H8.25C9.04565 3 9.80848 3.3163 10.3711 3.87891C10.9337 4.44152 11.25 5.20435 11.25 6V8.25ZM21 8.25C21 9.04565 20.6837 9.80848 20.1211 10.3711C19.5585 10.9337 18.7956 11.25 18 11.25H15.75C14.9544 11.25 14.1915 10.9337 13.6289 10.3711C13.0663 9.80848 12.75 9.04565 12.75 8.25V6C12.75 5.20435 13.0663 4.44152 13.6289 3.87891C14.1915 3.3163 14.9544 3 15.75 3H18C18.7956 3 19.5585 3.3163 20.1211 3.87891C20.6837 4.44152 21 5.20435 21 6V8.25Z" fill="currentColor" fill-opacity="0.61"/>
</svg>
